<svg viewBox="0 0 24 24" xmlns="http://www.w3.org/2000/svg">
  <path
    fill="currentColor"
    d="M17 9H16V7C16 4.79086 14.2091 3 12 3C9.79086 3 8 4.79086 8 7V9H7C5.89543 9 5 9.89543 5 11V20C5 21.1046 5.89543 22 7 22H17C18.1046 22 19 21.1046 19 20V11C19 9.89543 18.1046 9 17 9ZM10 7C10 5.89543 10.8954 5 12 5C13.1046 5 14 5.89543 14 7V9H10V7ZM12 18C11.1716 18 10.5 17.3284 10.5 16.5C10.5 15.9395 10.8079 15.4509 11.2634 15.192V12.25C11.2634 11.8358 11.5992 11.5 12.0134 11.5C12.4276 11.5 12.7634 11.8358 12.7634 12.25V15.192C13.1921 15.4509 13.5 15.9395 13.5 16.5C13.5 17.3284 12.8284 18 12 18Z"
  />
</svg>


